# Blender v2.93.5 OBJ File: 'star.blend'
# www.blender.org
mtllib star.mtl
o Circle
v -0.955818 -0.015827 -0.380558
v -0.580447 -0.028615 0.749943
v 0.054115 0.241659 -0.020354
v -0.004761 -0.015827 -1.071540
v 0.644698 0.004562 0.778564
v 0.942786 -0.054706 -0.433270
v -0.375052 -0.028615 0.065172
v 0.003704 -0.025139 0.341663
v -0.698708 -0.021488 -0.183230
v -0.361390 -0.027312 0.596838
v -0.241091 -0.015827 -0.396821
v -0.503424 -0.028615 0.493153
v 0.330878 -0.009979 0.564664
v 0.439303 0.004562 0.093793
v 0.219595 -0.045394 -0.460668
v 0.040268 -0.255336 0.006037
vt 0.262236 0.827254
vt 0.024472 0.654508
vt 0.500000 0.500000
vt 0.500000 1.000000
vt 0.497905 0.490227
vt 0.737764 0.827254
vt 0.064678 0.530768
vt 0.115290 0.375000
vt 0.975528 0.654509
vt 0.884710 0.375000
vt 0.793893 0.095492
vt 0.650008 0.095492
vt 0.500000 0.095491
vt 0.316317 0.095491
vt 0.206107 0.095491
vt 0.172051 0.200307
vn -0.0127 0.8299 -0.5577
vn -0.4860 -0.8572 -0.1702
vn 0.4606 -0.8622 -0.2109
vn -0.3800 0.7670 0.5171
vn 0.0037 -0.9125 -0.4090
vn 0.4047 -0.7817 0.4745
vn 0.5637 -0.8085 -0.1691
vn -0.3131 -0.7988 0.5137
vn 0.3885 -0.7396 0.5496
vn -0.4900 -0.8593 -0.1470
vn -0.3730 -0.8041 0.4630
vn -0.0115 -0.8630 -0.5051
vn -0.5081 0.8427 -0.1780
vn -0.5489 0.8195 -0.1646
vn 0.4005 0.7101 0.5791
vn -0.3847 0.7678 0.5123
vn 0.5521 0.8172 -0.1656
vn 0.4285 0.8472 0.3140
vn 0.0312 0.8426 -0.5376
vn 0.6703 0.7112 -0.2118
usemtl Material.001
s off
f 11/1/1 1/2/1 3/3/1
f 11/1/2 4/4/2 16/5/2
f 4/4/3 15/6/3 16/5/3
f 3/3/4 1/2/4 9/7/4 7/8/4
f 15/6/5 6/9/5 16/5/5
f 6/9/6 14/10/6 16/5/6
f 14/10/7 5/11/7 16/5/7
f 5/11/8 13/12/8 16/5/8
f 13/12/8 8/13/8 16/5/8
f 8/13/9 10/14/9 16/5/9
f 10/14/9 2/15/9 16/5/9
f 2/15/10 12/16/10 16/5/10
f 12/16/10 7/8/10 16/5/10
f 7/8/11 9/7/11 16/5/11
f 9/7/11 1/2/11 16/5/11
f 1/2/12 11/1/12 16/5/12
f 4/4/13 11/1/13 3/3/13
f 7/8/14 12/16/14 2/15/14 3/3/14
f 3/3/15 2/15/15 10/14/15 8/13/15
f 8/13/16 13/12/16 5/11/16 3/3/16
f 5/11/17 14/10/17 3/3/17
f 14/10/18 6/9/18 3/3/18
f 6/9/19 15/6/19 3/3/19
f 15/6/20 4/4/20 3/3/20
