# Blender v2.93.5 OBJ File: ''
# www.blender.org
mtllib rock.mtl
o NurbsCurve
v -0.449516 1.124458 -0.054278
v 0.191069 1.422017 -0.006283
v 0.844359 0.016100 0.007822
v -0.902790 -0.003290 -0.138871
v -0.286040 1.181399 -0.337923
v 0.085087 1.286233 0.344073
v 0.173022 0.011795 0.783154
v -0.457541 -0.003200 -0.791751
v 0.186327 1.306606 -0.317231
v -0.746120 0.010798 0.350721
v 0.468915 -0.004048 -0.809355
v -0.248187 1.471200 -0.106320
v 0.273421 1.399171 0.171802
v 0.914441 -0.003200 0.003255
v -0.065240 1.488010 -0.017976
v 0.731967 -0.002617 0.505295
v -0.683306 0.012446 -0.335167
vt 0.000000 0.000000
vt 0.000000 0.000000
vt 0.000000 0.000000
vt 0.000000 0.000000
vt 0.000000 0.000000
vt 0.000000 0.000000
vt 0.000000 0.000000
vt 0.000000 0.000000
vt 0.000000 0.000000
vt 0.000000 0.000000
vt 0.000000 0.000000
vt 0.000000 0.000000
vt 0.000000 0.000000
vt 0.000000 0.000000
vt 0.000000 0.000000
vt 0.000000 0.000000
vt 0.000000 0.000000
vn -0.6563 0.7172 -0.2343
vn -0.8290 -0.3892 -0.4016
vn -0.7833 0.3180 -0.5341
vn 0.6387 -0.4196 -0.6450
vn 0.8761 0.3623 0.3180
vn -0.8360 0.3666 -0.4082
vn -0.2102 -0.8885 -0.4079
vn -0.7276 -0.2678 -0.6315
vn -0.1768 0.7687 -0.6146
vn 0.8465 0.3792 -0.3736
vn 0.3681 0.8994 -0.2358
vn 0.4099 -0.2717 -0.8707
vn 0.3405 -0.7541 -0.5616
vn -0.0293 0.3532 -0.9351
vn 0.9509 -0.2972 0.0864
usemtl None
s off
f 15/1/1 5/2/1 1/3/1
f 3/4/2 6/5/2 2/6/2
f 4/7/3 5/2/3 8/8/3
f 10/9/4 12/10/4 6/5/4
f 14/11/5 13/12/5 16/13/5
f 4/7/6 1/3/6 5/2/6
f 2/6/7 6/5/7 15/1/7
f 3/4/8 7/14/8 6/5/8
f 15/1/9 9/15/9 5/2/9
f 13/12/10 14/11/10 11/16/10 9/15/10
f 15/1/11 13/12/11 9/15/11
f 7/14/12 10/9/12 6/5/12
f 6/5/13 12/10/13 15/1/13
f 9/15/14 11/16/14 8/8/14 5/2/14
f 10/9/15 17/17/15 12/10/15
